HIERARCHY
ROOT Hips
{
    OFFSET 7.691546440124512 91.22733306884766 -17.542694091796875
    CHANNELS 6 Xposition Yposition Zposition Zrotation Xrotation Yrotation
    JOINT RightUpLeg
    {
        OFFSET -7.691546440124512 0.0 0.0
        CHANNELS 3 Zrotation Xrotation Yrotation
        JOINT RightLeg
        {
            OFFSET 0.0 -47.37059783935547 0.0
            CHANNELS 3 Zrotation Xrotation Yrotation
            JOINT RightFoot
            {
                OFFSET 0.0 -43.85673522949219 0.0
                CHANNELS 3 Zrotation Xrotation Yrotation
                End Site
                {
                    OFFSET 0.0 0.0 17.542694091796875
                }
            }
        }
    }
    JOINT LeftUpLeg
    {
        OFFSET 7.691546440124512 0.0 0.0
        CHANNELS 3 Zrotation Xrotation Yrotation
        JOINT LeftLeg
        {
            OFFSET 0.0 -47.37059783935547 0.0
            CHANNELS 3 Zrotation Xrotation Yrotation
            JOINT LeftFoot
            {
                OFFSET 0.0 -43.85673522949219 0.0
                CHANNELS 3 Zrotation Xrotation Yrotation
                End Site
                {
                    OFFSET 0.0 0.0 17.542694091796875
                }
            }
        }
    }
    JOINT Spine
    {
        OFFSET 0.0 24.130788803100586 0.0
        CHANNELS 3 Zrotation Xrotation Yrotation
        JOINT Spine3
        {
            OFFSET 0.0 21.268251419067383 0.0
            CHANNELS 3 Zrotation Xrotation Yrotation
            JOINT Neck
            {
                OFFSET 0.0 8.55947494506836 0.0
                CHANNELS 3 Zrotation Xrotation Yrotation
                End Site
                {
                    OFFSET 0.0 3.4237899780273438 0.0
                }
            }
            JOINT LeftArm
            {
                OFFSET 8.762726783752441 0.0 0.0
                CHANNELS 3 Zrotation Xrotation Yrotation
                JOINT LeftForeArm
                {
                    OFFSET 22.766155242919922 0.0 0.0
                    CHANNELS 3 Zrotation Xrotation Yrotation
                    JOINT LeftHand
                    {
                        OFFSET 16.000516891479492 0.0 0.0
                        CHANNELS 3 Zrotation Xrotation Yrotation
                        End Site
                        {
                            OFFSET 6.400206565856934 0.0 0.0
                        }
                    }
                }
            }
            JOINT RightArm
            {
                OFFSET -8.762726783752441 0.0 0.0
                CHANNELS 3 Zrotation Xrotation Yrotation
                JOINT RightForeArm
                {
                    OFFSET -22.766155242919922 0.0 0.0
                    CHANNELS 3 Zrotation Xrotation Yrotation
                    JOINT RightHand
                    {
                        OFFSET -16.000516891479492 0.0 0.0
                        CHANNELS 3 Zrotation Xrotation Yrotation
                        End Site
                        {
                            OFFSET -6.400206565856934 0.0 0.0
                        }
                    }
                }
            }
        }
    }
}
MOTION
Frames: 8
Frame Time: 0.03333333333333333
0.00019863454508595169 95.37458801269531 -0.0009929434163495898 6.20875851702406 -3.3203544474453963 24.69096882491083 11.72135215002487 1.584750818670799 -0.30165946913673714 -7.1587901051927005 18.504144481605454 -1.1389676313280634 0.0 0.0 -1.2921003393445538e-15 -1.3552346235890647 17.71738746762232 0.6934898981150717 -4.328383885092221 9.182112082302444 1.0407974877048027 -6.069121159818968e-32 -3.1805546814635164e-15 -2.1866313435061676e-15 3.49994547290447 15.718786385237047 -0.6921185331881846 -8.065391322323935e-07 -1.1744362540057464e-06 -3.125637114159085 5.08167000433439 4.93940678061115 164.4503885686901 114.84320084835217 -17.083754359039467 -178.05826807260524 -1.1118623936012125e-06 2.7683626357344484e-06 48.94611693796991 1.9878466759146976e-15 1.5902773407317582e-15 -2.758691436281349e-32 -110.89245212818626 -8.818094169837002 -173.6240698675039 -1.773065108763558e-06 -4.414157789258045e-07 -18.65170119101388 4.770832022195274e-15 3.1805546814635164e-15 3.1805546814635164e-15
0.0004858782631345093 95.3746566772461 -0.0009918366558849812 7.400938367334761 0.045286700977496326 21.262144026054607 9.516077635792549 2.5720447536175026 -0.5383318256462376 -6.55481208377525 10.230659247403326 -0.9367222245348956 4.138037154422024e-33 1.5902773407317584e-15 -2.981770013872047e-16 -6.013966212223314 16.576320515894544 1.0407373005814082 -2.8227083212612056 9.38744077541159 1.0340740631855387 -7.951386703658791e-16 -3.379339349054986e-15 -1.3914926731402884e-15 0.12969386010007153 11.824037735529092 -0.5064416602902323 -5.148183110309945e-07 4.4005353198003737e-07 -6.34889286055576 4.579271855387888 5.478696735437249 166.62737910789897 112.28945717577717 -7.773727385012656 176.83515836788072 -1.6319672039102048e-06 -5.118549345871149e-07 55.781646788798724 3.1805546814635168e-15 3.1805546814635168e-15 3.1805546814635168e-15 -110.8789811516352 -3.239477404665418 -171.20006165190577 -1.6366174559150156e-06 -8.816434289660215e-06 -17.973123250018848 7.55381736847585e-15 1.0483027457869126e-31 1.5902773407317582e-15
0.0005396726191975176 95.37488555908203 -0.0010354139376431704 6.98925654905849 -3.4198706754967554 30.659914285881065 13.703988711487224 2.5062695093748135 -0.5638701516061019 -5.427655147231902 9.175393600609985 -1.153018025474303 -1.5902773407317582e-15 -1.6552148617688095e-32 1.1927080055488186e-15 -1.2557737936346955 19.006130860544204 0.7414405406968946 -2.0501440430276476 13.279576430776451 0.9651756710166475 -7.951386703658796e-16 2.9817700138720476e-15 6.758678698109974e-15 2.4737417979073095 15.211399624469005 -0.3758078177978217 -3.77683689075994e-08 -9.065959674896968e-07 -5.794021405935105 7.140232613930256 4.99754903294591 163.11120932896455 118.07717780928915 -14.229965343230052 -176.67972307190567 -3.291052931087899e-06 -2.5815991097485226e-06 49.09719219135281 5.565970692561154e-15 -1.5902773407317584e-15 7.724336021587778e-32 -110.13888993439706 3.491719092528218 -168.79566691091821 2.2067515407263623e-06 2.393314852139547e-06 -19.859526654491738 -3.1805546814635164e-15 1.590277340731758e-15 3.1805546814635164e-15
0.0003035173867829144 95.37464904785156 -0.0011510441545397043 5.642118449041182 -1.8182524382835574 28.313746557149102 13.868506947747088 1.273442260267084 -0.29229493962542813 -4.606738272667681 6.456106481876016 -0.9436588135650248 0.0 0.0 4.373262687012335e-15 -1.4815540972928434 17.33260498070743 0.6993500258696037 -3.9261790089703004 13.498875162786398 1.4448253046168211 -7.951386703658792e-16 0.0 0.0 2.362112133779336 10.759029409591111 -0.27389587665849774 -4.35921762569854e-08 1.2256805402288248e-06 -6.235718467470354 5.839795498835731 6.515279314925691 169.6219491051669 115.21225422848119 -10.492352731533167 -179.79275575293875 -2.6749346004013947e-06 1.092469375467183e-06 52.279880321065754 2.3854160110976368e-15 -6.620859447075238e-32 -3.180554681463516e-15 -111.18956591397827 3.467982839817541 -167.13411181311963 -9.112062742847085e-07 -7.124703960140625e-06 -14.76147597489385 7.951386703658792e-16 -1.5902773407317584e-15 -1.5902773407317584e-15
0.0002544521412346512 95.3745346069336 -0.00111331173684448 6.878233612833704 -5.003294578045526 28.998163699892785 13.355722855507455 4.045291375164182 -0.7249611338101053 -4.3580122940360475 6.136815090527058 -0.61811071753332 1.0345092886055059e-32 1.1927080055488192e-15 -9.939233379573492e-16 1.04107369825707 21.408417165483687 0.7742256962964593 -5.865515692593796 14.287695727481255 1.9450006182408608 1.5902773407317584e-15 -3.1805546814635168e-15 -1.5902773407317584e-15 4.04022652026305 14.610244187612405 -0.21617330943462487 4.3798756930231537e-07 1.6627359263849475e-06 -5.468020437691479 5.7946774202602915 6.954397649127938 170.22319996178803 115.0489615209922 -13.973819312262934 -177.6860097579573 3.2670927216730983e-06 -4.187024226080048e-07 50.80549048039709 1.5902773407317584e-15 1.5902773407317584e-15 -3.1805546814635168e-15 -111.1618940689309 7.2748650374485235 -169.59085976134992 3.835855157569562e-06 -4.142653291053625e-06 -11.534237063573103 -8.547740706433202e-15 2.3724746352019604e-31 -3.1805546814635168e-15
0.00026265924680046737 95.3743896484375 -0.0010411564726382494 8.137472940240404 -3.9371774950012983 33.12433381793658 13.033072160242089 3.4285083590913685 -0.6615888955569565 -5.4780414151175805 6.779504935674499 -0.6387359121839246 1.5902773407317584e-15 7.310532306145575e-32 5.267793691173949e-15 0.9507423110918118 19.625882054601153 0.3856718102712795 -5.618105944555065 16.975010328735166 1.962220355833817 3.1805546814635168e-15 3.975693351829397e-16 1.987846675914698e-15 2.8053717738257866 15.48644831750551 -0.18395478818134195 -5.7564140267916584e-08 1.2240342674555144e-06 -4.292163567705381 4.400098949714005 5.065393803550203 165.65354159661658 115.47371013033705 -14.626477510112148 -175.35792395014766 -2.2330462261086695e-06 1.2815181658398798e-06 53.16569007470583 -7.951386703658791e-16 0.0 0.0 -108.90674092595243 -3.0688489107449297 -171.96036220998047 5.196427555462035e-07 6.091757083889792e-06 -12.104782951209692 4.770832022195275e-15 1.5902773407317584e-15 -6.620859447075238e-32
0.0005109756602905691 95.37456512451172 -0.0010589680168777704 8.80431549868551 -5.088304526405225 32.15799957545538 12.245417599480158 5.578482452891495 -1.0510561497439015 -2.425982096426714 7.6697247967861255 -1.0985360605674794 0.0 0.0 1.1927080055488188e-15 0.7561696475123045 21.51112022762593 0.29156036627278087 -6.581947863241774 17.197357598067338 2.1727606396598675 0.0 0.0 3.578124016646457e-15 2.47590400552276 16.712721981883742 -0.2613242677908964 -1.764498179699415e-07 5.131789443737737e-07 -2.346561167039354 4.359856588589383 4.811932610727019 166.10014020299494 116.45108975317045 -17.55705528205617 -175.83919173438392 5.070500655722981e-07 -6.302047058759186e-07 50.35731848743795 1.5902773407317584e-15 0.0 0.0 -110.97125676003357 2.068941042942163 -173.40343344692204 7.037832450281656e-06 -5.9206093042285324e-06 -13.906455665068973 -4.770832022195275e-15 -1.5902773407317584e-15 3.1805546814635168e-15
0.0005857531214132905 95.37462615966797 -0.0011143892770633101 8.954978197695578 -6.090482318542795 34.43882266884095 13.763043214666778 6.89707195904131 -1.371160344299894 -4.365216277144533 6.801230534143641 -0.8080514108753802 1.5902773407317584e-15 7.951386703658792e-16 -1.4908850069360234e-15 2.4137129192573212 20.062723876481453 0.02359277379088457 -5.964111599458945 19.763625021702232 2.0412300771966665 -3.1805546814635164e-15 1.1034765745125397e-32 -3.9756933518293955e-16 3.0419714410700394 16.938699527142774 -0.15869499955594416 4.786919108102833e-07 3.430578796347288e-07 -3.4402652848409443 3.9105616930989724 5.275960091138828 165.715166065624 115.55160724123697 -19.435772150582583 -175.46547592989418 3.3608564783816897e-06 1.1154781676324316e-07 43.33132306128455 5.565970692561154e-15 -3.1805546814635168e-15 1.5448672043175555e-31 -110.12271453626727 4.072851839333581 -173.9324904925743 1.3787472930919587e-06 -9.458377083697009e-06 -15.76610925391772 0.0 3.1805546814635176e-15 0.0
